<svg width="1000" height="1000" viewBox="0 0 1000 1000" fill="none" xmlns="http://www.w3.org/2000/svg">
<rect width="1000" height="1000" fill="black"/>
<circle cx="499.5" cy="499.5" r="290.5" fill="#D9D9D9"/>
<path d="M334.91 400.023C320.561 391.739 320.561 378.307 334.91 370.023L473.514 290C487.863 281.716 511.127 281.716 525.476 290L664.08 370.023C678.428 378.307 678.428 391.739 664.08 400.023L525.476 480.046C511.127 488.33 487.863 488.33 473.514 480.046L334.91 400.023Z" fill="black"/>
<path d="M516.434 540.87C516.434 524.301 528.066 504.154 542.415 495.87L681.019 415.847C695.368 407.562 707 414.278 707 430.847L707 590.893C707 607.461 695.368 627.608 681.019 635.893L542.415 715.916C528.066 724.2 516.434 717.484 516.434 700.916L516.434 540.87Z" fill="black"/>
<rect width="220.046" height="220.046" rx="30" transform="matrix(0.866025 0.5 -2.20305e-08 1 301 402.847)" fill="black"/>
</svg>
